<svg xmlns="http://www.w3.org/2000/svg" viewBox="0 0 651 330"><path fill="#C90606" d="M210.7 6.9c-4 17.4-12.2 27.4-42.6 51.6C151 72.2 145 77.9 139.5 86c-4.3 6.2-4.8 7.5-5.3 13.9-.8 12.2 4.2 22.5 19.1 39.3 7.4 8.2 22.9 22.8 21.2 19.8-.4-.8-4.8-7.5-9.8-14.9-11.2-16.7-13.8-22.4-14.5-31.2-1.1-15.9 5.9-27.3 27.8-45.5 17.2-14.3 28.5-27.4 34.5-39.9 3.5-7.3 5.9-17.8 5.3-23.6-.2-2.8-.7-3.5-2.9-3.7-2.5-.3-2.7.1-4.2 6.7z"/><path fill="#C90606" d="M236 54.5c-20.3 7.4-35.8 16.4-46.3 27.1-7.7 7.8-11.1 14.8-11.5 24.1-.6 10.3 2.1 17.3 11.3 30.2 4.1 5.8 7.8 12 8.1 13.8 1.1 5.8-.2 12.1-3.5 17.4l-3.1 5 4.3-2.9c9.3-6.5 17-16.9 18.3-24.9.9-6.1-1-11.2-9-23.1-8.3-12.3-10.1-17.9-8.5-25.1 2.4-10.6 16.8-24.2 41.2-39.1 4.8-2.9 8.7-5.5 8.7-5.7 0-.4.7-.6-10 3.2zM342 162c0 32.7-.4 50.7-1.1 54.2-1 4.5-2.1 6.2-7.6 11.6l-6.4 6.3 3 3.5c1.7 1.9 3.1 3.9 3.1 4.5s.4.6 1.3-.1c.6-.5 4.1-2.9 7.7-5.2 6.8-4.5 11.9-10.9 14.2-17.6.8-2.6 1.3-18.5 1.5-55l.4-51.2H342v49zM393.3 139c-6.6 1-19.3 4.8-19.3 5.8 0 .4.5 2.4 1.1 4.5.8 2.9 1.4 3.7 2.7 3.3 16.9-5.2 28.3-4.7 33.7 1.3 1.4 1.6 2 4.1 2.3 9l.4 6.8-9.8.6c-17.6 1.1-27.2 5.6-31.8 14.8-6 12.1-1.4 25.4 10.2 29.4 8.6 2.9 18.4 1.3 27.6-4.5 5.2-3.3 6.6-3 6.6 1.7 0 2.1.4 2.3 6 2.3h6v-27c0-30.9-.6-35.5-5.7-41-5.5-6.1-17.7-9-30-7zm20.5 49.7l-.3 9.8-5.5 3.2c-4.5 2.7-6.4 3.3-11.3 3.3-5.1 0-6.2-.4-8.8-2.9-2.4-2.5-2.9-3.8-2.9-8 0-2.7.5-6.1 1.1-7.4 2.2-4.7 9.6-7.4 21.2-7.6l6.8-.1-.3 9.7zM535 138.9c-6 .9-15.7 3.5-17.9 5-1 .6-1.2 2-.8 4.6.3 2.1.8 3.9.9 4.1.2.1 3.7-.6 7.8-1.7 14-3.7 25.9-1.8 28.8 4.6.7 1.4 1.2 5.2 1.2 8.4v5.8l-9.7.6c-9.8.7-16.5 2.2-21.9 5-3.4 1.8-8.6 7.1-10.4 10.7-1.7 3.3-1.8 15.8-.1 19 6.5 12.2 25.6 14.7 38.9 5 2.3-1.6 4.6-3 5.2-3 .5 0 1 1.6 1 3.5v3.5h12.1l-.3-30.3-.3-30.2-2.7-4.7c-4.8-8.1-17-11.9-31.8-9.9zm19.8 49.8l-.3 9.7-4.5 3c-3.6 2.5-5.8 3.1-11.2 3.4-6 .4-6.9.2-9.2-2.1-4.6-4.6-4.7-14.4-.1-18.7 3.2-3 10.3-4.8 18.8-4.9l6.8-.1-.3 9.7zM439 140.2c0 .2 5.1 16.7 11.3 36.8l11.3 36.5 9.6.3 9.5.3 3.6-8.3c7-16.5 12.9-35.5 17.6-57.1l1.9-8.7h-15.6l-1.7 9.7c-3.1 17.8-11.9 49.3-13.7 49.3-.4 0-1-1.2-1.4-2.8-1.5-7-4.7-18.2-9.9-34.7-3.2-9.9-5.9-18.8-6.2-19.8-.5-1.4-1.8-1.7-8.4-1.7-4.4 0-7.9.1-7.9.2z"/><path fill="#0468B2" d="M261.7 162.4c-2.6.7-4.9 1.5-5.1 1.7-.3.2 3.1.4 7.4.4 7.1 0 8.2.3 12.2 3 9 6.3 11.4 18.7 5.5 28.5-4.7 8-17.4 19.2-27.5 24.4-1.9 1-3.2 1.9-3 2.2 1.4 1.3 23.2-8.5 29.8-13.4 5.6-4.2 11.8-11.1 14-15.6 3-6.4 2.7-14.7-.7-20.3-2.8-4.4-10-9.9-14.4-10.9-5.3-1.3-13.7-1.3-18.2 0zM126.5 164.7c-18.8 2.6-44.5 12.4-44.5 16.8 0 .9 2 2.4 4.5 3.5 20.5 8.8 93.2 9 134.5.4 6.9-1.4 18.6-6.1 17.6-7.1-.2-.2-9.5.7-20.7 2.1-41.2 5.2-98 5.7-109.7 1.1-9.3-3.7-3.8-8.1 19.8-15.9 4.5-1.4 4.1-1.7-1.5-.9zM116.2 205.5c-9 4.9-10.2 7.7-4.9 11.7 5 3.8 11.7 5.8 25.5 7.9 22.7 3.4 52.3 2 79.2-3.6 17.7-3.8 16.9-3.2 10.2-7.2-3.1-2-6.1-3.6-6.7-3.6-.5 0-7.5 1.1-15.5 2.4-12.7 2.1-17.8 2.4-41 2.4-27-.1-35.8-1-40.8-4.2-2-1.2-2.3-2-1.7-4.9.3-1.9.5-3.4.3-3.4-.2.1-2.2 1.2-4.6 2.5zM123.7 241.7c-6.7 3.7-7.3 6.6-2.1 10.9 7.9 6.7 27 10.9 48.9 10.9 15.5-.1 28.8-2 43-6.1 14-4 13.9-3.9 4.3-8.6l-8.3-4-10 1.9c-7.8 1.4-14.9 1.8-32 1.8-28.7 0-37.8-1.7-38.7-7.2l-.3-2.2-4.8 2.6z"/><path fill="#F00" d="M328.7 245.7c-.4.3-.7 11.8-.7 25.5V296h263v-51H460.2c-72 0-131.2.3-131.5.7zm68.9 16.5c2.9 3.2 3.4 4.5 3.4 8.7 0 5.4-2.2 9.1-7 11.6-3.9 2-20.8 2-25.5.1-9.2-3.9-9.9-17.2-1.2-22.7 2.8-1.7 4.6-1.9 15-1.7l11.9.3 3.4 3.7zm33.5-1.3c4.7 4.8 3.4 11.1-2.9 13.9l-3.8 1.7 3.7 3c4.7 3.7 4.8 4.5.7 4.5-2.6 0-4.9-1.4-10.5-6.3l-7.1-6.2 6.1-.3c10.5-.4 13-1.9 10.7-6.3-.9-1.7-2.2-1.9-10-1.9h-9v21.1l-2.7-.3-2.8-.3-.3-11.4c-.1-6.3 0-12.1.2-12.8.4-1 3.6-1.3 12.6-1.3 12.1 0 12.2 0 15.1 2.9zm31.5 9.9c8.1 12.5 8.1 12.7 5.6 13-1.9.3-3.2-.4-4.7-2.2-1.8-2.3-2.8-2.6-8.5-2.6-5.5 0-6.7-.3-7.8-2-1.6-2.6 0-3.3 6.3-2.8 2.5.2 4.5 0 4.5-.4s-1.3-2.8-2.9-5.3l-2.9-4.6-6.2 10c-5.6 9.1-6.5 10.1-9.1 10.1-1.6 0-2.9-.2-2.9-.5 0-.2 2-3.5 4.3-7.2 2.4-3.7 6-9.4 8-12.6 5.6-8.7 6.6-8.3 16.3 7.1zm35.4-12.1c0 .5-.7 1.6-1.4 2.5-1.1 1.5-2.9 1.8-9.7 1.8-9.6 0-12.4 1.2-13.4 5.9-.8 3.8 1.7 8.9 4.8 9.6 1.2.3 6.4.6 11.5.8l9.2.2-1.5 2.2c-1.5 2.1-2.4 2.3-10.6 2.3-10.3 0-13.9-1.3-16.9-6.3-3.8-6.1-1.8-14 4.3-17.7 2.6-1.6 5-2 13.5-2 5.6 0 10.2.3 10.2.7zm8 9.8V279h23l-1.6 2.5c-1.7 2.5-1.8 2.6-13.8 2.3l-12.1-.3-.3-12.8-.3-12.7h5.1v10.5zm50.8-8.3c-1.4 2.1-2.5 2.3-10.4 2.6-7.4.2-9.2.6-11.1 2.4-1.3 1.2-2.3 2.5-2.3 3s5.2.8 11.5.6c11.4-.3 13.1.2 10.3 3-.8.8-4.8 1.2-11.5 1.2-5.7 0-10.3.4-10.3.9s1.2 1.9 2.6 3c2.3 1.8 4.1 2.1 12.5 2.1 5.5 0 9.9.3 9.9.7 0 .5-.7 1.6-1.5 2.6-1.2 1.7-2.6 1.9-11.4 1.5-9.5-.3-10.1-.4-13.1-3.3-1.7-1.6-3.5-4.6-4.2-6.6-.9-3.2-.8-4.4 1.1-8.2 3.1-6.4 6.2-7.6 19-7.7h10.3l-1.4 2.2z"/><path fill="#F00" d="M368.5 265.5c-2.9 2.8-3.1 5.4-1 9.4 1.9 3.8 3 4.1 14.1 4.1 8.7 0 9.7-.2 11.9-2.5 1.6-1.5 2.5-3.6 2.5-5.5s-.9-4-2.5-5.5c-2.2-2.3-3.1-2.5-12.5-2.5s-10.3.2-12.5 2.5z"/><path fill="#0468B2" d="M84 263.9c-10.5 2.9-21.9 8.1-25.6 11.8-3.9 3.9-4.1 4.6-1.5 7.2 3 3 10.9 5 30.7 7.6 73.4 9.7 156 4.1 187.8-12.8 6.7-3.5 8.5-6.2 6.5-9.8l-1.3-2.4-.7 3.5c-.9 4-2.4 5.3-9.8 8.1-20.9 7.9-92.3 13-139.3 9.9-20.9-1.4-31.3-2.7-41.6-5.1-10.9-2.6-14.4-4.5-14-7.8.5-3.9 9.4-8 25.3-11.4 1.1-.3-.7-.5-4-.5s-8.9.8-12.5 1.7z"/><path fill="#0468B2" d="M293 286.4c-4.9 4.9-31.8 12.4-57.5 16.1-24.8 3.6-23.3 3.5-58 4.1-29.4.6-56.8-.3-68.5-2.3-1.9-.3-3.2-.3-2.9.1 1.4 1.5 23.3 4.6 38.7 5.6 54.4 3.3 106.5-1.2 133.2-11.5 7.1-2.8 15.3-8.3 17-11.5 1.2-2.3.1-2.7-2-.6z"/></svg>