<svg xmlns="http://www.w3.org/2000/svg" viewBox="2704.7 1564.5 769.3 296.5"><g fill="#F4DE16"><path d="M3210.72 1564.86c-1.55.43-2.86 1.39-3.46 2.59-.47.88-.52 1.24-.43 2.81.09 1.48.34 2.41 1.46 5.4 4.61 12.3 7.56 24.81 9.25 39.14.9 7.58 1.19 13.05 1.35 25.08.09 6.5.25 11.99.34 12.21.11.22.34.36.56.29 2.59-.76 11.29-2.86 15.88-3.82 11.81-2.5 25.53-4.52 35.99-5.31 1.73-.13 3.51-.27 3.94-.31.43-.07 2.32-.18 4.16-.25 1.87-.09 3.73-.18 4.16-.25.43-.04 4.68-.13 9.45-.22 7.6-.13 18.13.09 23.62.47.81.07 2.99.2 4.84.34 27.49 1.91 58.22 8.08 85.16 17.1 11.83 3.96 23.89 8.68 30.14 11.81 2.43 1.24 5.38 4.77 4.77 5.71-.18.27-.61.36-1.89.34-1.33-.02-2.38-.25-5.26-1.17-1.98-.63-5.58-1.71-7.99-2.41-2.41-.67-4.52-1.3-4.66-1.35-.18-.07-.74.81-1.42 2.2-3.13 6.34-8.08 10.64-13.36 11.61-5.8 1.06-12.98-1.75-15.5-6.05-2-3.44-1.62-8.62 1.06-14.06l.92-1.87-4.05-1.15c-5.42-1.55-11.02-2.63-19.68-3.82-7.81-1.08-19.68-2.25-26.77-2.61-1.3-.07-2.65-.18-3.04-.22-4.12-.58-42.11-.58-45.8 0-.29.05-1.91.13-3.58.2-1.66.09-3.44.18-3.94.25-.49.05-1.75.16-2.81.22-4.09.27-10.03.83-15.75 1.46-22.72 2.52-43.21 6.37-66.58 12.48-3.28.88-4.21 1.03-5.56.97-1.8-.09-1.46.11-7.58-4.32-1.57-1.15-4.52-3.08-6.52-4.27-3.96-2.38-17.55-9.27-18.78-9.49l-.76-.16.11.99c.22 1.93 2.65 6.3 7.9 14.15 2.97 4.48 4.52 6.68 7.09 10.19.81 1.08 1.42 2 1.37 2.05-.47.34-10.21 4.66-15.84 7-16.08 6.7-27.87 10.1-34.42 9.92-2.7-.07-3.33-.31-5.96-2.23-10.06-7.29-18.13-14.24-33.4-28.73-12.53-11.9-16.6-15.52-18.42-16.47-4.99-2.54-15.18-2.7-17.46-.29l-.54.56 3.08 6.03c14.15 27.8 22.56 57.77 26 92.61 1.6 16.06 2.27 28.43 2.43 43.98.2 19.5-.54 31.47-2.77 44.54-1.62 9.63-3.64 16.44-6.57 22.09-.16.34 1.57.18 2.92-.29 5.29-1.78 10.82-8.62 15.81-19.55 8.66-18.96 15.84-50.91 20.92-93.11.43-3.62.85-6.7.94-6.84.09-.16.25-3.71.32-7.92.2-9.31.47-11.2 2.05-13.83 1.06-1.75 2.23-2.41 5.29-2.95 4.03-.7 8.44-.76 14.06-.22 2.7.27 5.49.47 6.19.47 1.84 0 5.06.72 7 1.55 5.04 2.14 9.92 6.88 13.32 12.89.38.72.76 1.3.85 1.3.31 0 4.81-3.17 6.97-4.93 4.75-3.89 9.56-8.71 18.27-18.24 12.21-13.43 17.21-18.02 22.72-20.9 3.28-1.71 4.99-2.16 8.1-2.16 2.25.02 2.79.09 4.12.63 7.09 2.79 11.72 9.49 20.97 30.41 4.54 10.28 6.07 13.16 6.97 13.16.43 0 .54-.43.9-4.03 1.3-12.37 4.25-22.97 9.31-33.43 1.08-2.23 2.61-5.17 3.4-6.52 4.03-7.02 10.8-15.7 15.5-19.86l1.6-1.44 5.92.38c3.24.22 5.92.4 5.94.43.02.02-.68 1.1-1.55 2.38-4.54 6.68-10.98 17.07-14.69 23.73-6.88 12.35-10.6 22.13-10.15 26.81.16 1.78.4 2.27 1.44 2.7 1.48.63 5.6-.02 10.89-1.71 2.41-.79 2.16-.47 2.65-3.4 1.33-7.85 5.13-18.04 9.85-26.43 4.45-7.94 11.68-16.6 18.51-22.2 2.65-2.18 3.13-2.43 4.66-2.43 1.64 0 6.84 1.39 7.54 2.02.11.09-.86 1.46-2.14 3.06-8.19 10.21-15.41 21.12-19.93 30.17-3.37 6.7-6.12 14.67-6.12 17.7 0 1.26.85 1.6 3.94 1.57 2.83-.02 5.38-.58 7.6-1.64 2-.97 2.36-1.42 2.86-3.76 1.37-6.61 6.25-15.09 15.39-26.75 4.41-5.62 12.33-14.67 17.37-19.82l2-2.07 6.19 1.19c3.4.65 6.23 1.21 6.28 1.21.04.02-1.66 1.82-3.82 4-12.33 12.57-21.53 24.77-25.04 33.2-2.23 5.35-2.63 9.29-1.24 12.17.56 1.17.56 1.26-.38 4.34-1.1 3.62-2.45 7.04-3.22 8.1l-.65.88-3.22.29c-10.51.9-21.32 3.33-32.46 7.27-5.04 1.78-9.83 3.69-19.14 7.67-13.81 5.87-17.14 6.91-22.61 7.02l-3.26.07-.76.88c-.97 1.1-3.1 5.51-5.4 11.13-6.03 14.73-7.85 19.01-11.43 26.72-4.18 9-7.85 16.08-13.23 25.53-3.4 5.96-3.73 6.64-3.19 6.64.47 0 2.36-1.73 10.17-9.31 11.63-11.29 17.52-16.83 24.52-22.97 28.55-25.1 53.51-40.31 74.19-45.19 6.19-1.46 13.83-2.63 32.32-4.97 17.93-2.25 25.98-3.35 34.55-4.72 14.31-2.29 26.93-5.17 37.57-8.55 6.7-2.14 9.18-3.13 9.56-3.87.79-1.46-.04-6.61-1.87-11.49l-.45-1.17-3.26 4.43c-1.78 2.45-3.4 4.59-3.55 4.77-.27.29-1.06.02-5.71-1.98-2.97-1.28-5.49-2.27-5.6-2.25-.11.05-1.55 1.75-3.17 3.8-1.64 2.05-3.06 3.76-3.19 3.78-.11.04-.74-.25-1.39-.65-7.33-4.54-8.75-5.4-8.93-5.33-.09.05-1.91 2.16-4.05 4.72l-3.87 4.63-5.33-2.65c-2.95-1.46-5.44-2.7-5.58-2.74-.14-.05-2.16 2-4.48 4.54-2.32 2.54-4.3 4.63-4.39 4.68-.11.04-1.28-.67-2.61-1.57-1.33-.92-3.44-2.32-4.7-3.15l-2.27-1.48-3.55 5.17-3.58 5.17-.79-.97c-4.9-5.85-7.94-10.37-8.26-12.28l-.13-.94 2.88-1.89c21.62-14.1 48.16-23.24 80.85-27.8 12.69-1.78 23.28-2.61 41.12-3.17 3.98-.13 7.4-.29 7.58-.36.18-.09.34-.25.34-.36 0-.49-5.92-5.98-8.66-8.03-5.26-3.94-9.25-6.34-16.53-10.01-13.25-6.68-29.22-12.66-52.52-19.71-16.94-5.11-31.18-9-66.36-18.11-47.33-12.26-46.7-12.08-51.27-14.67-7.4-4.18-13.47-9.45-31.07-26.84-11.63-11.52-16.8-16.26-21.82-20.02-2.74-2.05-5.94-4.14-7.76-5.06-2-.97-5.1-1.24-7.33-.63zM2914.78 1619.09c-4.88 1.91-10.84 4.25-13.2 5.17l-4.34 1.71v116.68l13.11-.02c7.2-.02 13.23-.07 13.38-.13.2-.07.27-3.26.27-14.98v-14.87l2.68-4.45c1.46-2.45 2.72-4.39 2.79-4.27.13.25 5.31 18.78 9.99 35.83.31 1.17.65 2.29.76 2.47.16.29 1.91.31 13.97.25 7.58-.02 13.83-.11 13.88-.16.11-.09-.58-2.45-4.36-14.71-1.28-4.14-3.85-12.51-5.69-18.56-1.87-6.07-4.66-15.18-6.23-20.27l-2.83-9.27 5.49-8.28c3.01-4.57 7.22-10.91 9.34-14.13 2.14-3.19 3.87-5.85 3.87-5.89s-6.41-.09-14.24-.09h-14.24l-2.83 5.22c-4.39 8.05-6.05 11.2-9.67 18.4l-3.35 6.64.13-2.72c.09-1.48.22-4.88.34-7.54.22-6.41.27-55.54.07-55.52-.13.01-4.21 1.58-9.09 3.49zM2704.73 1681.52l.07 61.01 11.25-.05c6.19 0 12.12-.02 13.23-.02h1.96v-18.18c0-16.13-.13-24.72-.56-39.52l-.11-4.27 1.21 4.09c3.94 13.2 8.48 26.59 14.37 42.24 3.62 9.63 6.57 17.41 7.27 19.23.13.29.16.29.27 0 .07-.18 2.79-7.42 6.05-16.08 6.01-15.93 12.12-33.72 15.16-44.04 1.66-5.71 1.69-5.69 1.37 1.75-.27 6.3-.38 16.71-.38 37.21v17.61l11.02-.02c6.07-.02 11.97-.02 13.11-.02h2.07v-121.92h-26.22l-2.43 6.79c-13.5 37.81-16.2 45.89-18.81 56.3-.74 2.95-1.12 4.09-1.21 3.71-2.65-11.97-5.98-22.07-20.02-60.71-1.19-3.28-2.16-5.98-2.16-6.03s-5.98-.07-13.27-.07h-13.27l.03 60.99zM2847.64 1649.35c-9.27.7-18.02 3.4-26.23 8.12l-1.96 1.1 2.09 5.11c3.28 8.1 4.81 11.79 5.24 12.69l.38.85 1.91-1.17c6.5-3.94 12.24-5.69 18.56-5.69 3.58.02 5.04.34 6.59 1.46 2.25 1.62 2.74 3.33 2.9 9.88.13 4.66.11 4.81-.29 4.63-5.35-2.18-10.1-3.01-15.81-2.74-17.01.81-25.67 11.76-25.15 31.76.27 10.41 2.52 17.66 6.97 22.49 4.36 4.75 10.42 6.95 17.91 6.57 5.42-.27 10.8-2.43 15.12-6.03.58-.49 1.1-.88 1.15-.88.07 0 .13 1.08.16 2.41 0 1.3.07 2.43.11 2.47.05.04 5.89.11 13.02.13l12.96.04.09-1.46c.05-.81.07-16.24.05-34.3-.05-29.51-.09-33.09-.43-35.27-.99-6.39-3.17-11.13-6.75-14.67-5.9-5.84-15.91-8.45-28.59-7.5zm6.18 52.95c.67.2 1.71.58 2.27.83l1.03.43-.02 9.09-.02 9.11-.85.58c-2.23 1.51-5.83 2.47-8.5 2.29-2-.16-3.87-1.06-4.84-2.34-1.89-2.52-2.59-9.09-1.53-14.33.58-3.01 2.07-5.15 4-5.87 1.26-.46 6.69-.33 8.46.21zM3007.01 1649.33c-15.18 1.37-25.19 10.62-29.4 27.22-1.64 6.52-2.2 11.72-2.2 20.7 0 7 .18 9.43 1.03 14.49 3.58 21.19 15.18 32.5 33.61 32.73 14.17.18 24.9-6.21 30.59-18.27 2.45-5.15 3.96-10.71 4.97-18.27.47-3.4.67-15.07.34-19.12-2.07-25.28-13.65-38.83-33.76-39.57-1.67-.05-4.01-.03-5.18.09zm6.68 22.96c1.08.52 2.54 2.02 3.19 3.31 1.24 2.43 2.14 7.13 2.47 12.98.27 4.16.13 15.77-.2 19.12-.74 7.67-2.29 11.81-5.04 13.5-1.03.63-1.26.67-3.26.67-2.5 0-3.44-.36-4.81-1.89-2.14-2.36-3.22-6.3-3.76-13.65-.38-5.08-.18-19.55.32-23.03 1.08-7.47 2.9-10.64 6.66-11.49 1.17-.26 3.35-.03 4.43.48z"/><path d="M3398.49 1667.73c-.11.34-.18 1.98-.18 3.64 0 2.7.07 3.17.54 4.23 1.71 3.8 7.18 5.2 11.16 2.86 1.55-.9 3.19-2.54 4.39-4.34.63-.94 1.12-1.82 1.12-1.96 0-.11-3.37-1.17-7.49-2.34-4.09-1.17-7.9-2.25-8.41-2.41-.95-.29-.98-.29-1.13.32zM2888.51 1759.01c-3.89 1.03-7.13 4.07-8.89 8.32-1.57 3.78-2.16 6.88-2.34 12.26-.16 4.9.13 8.12 1.06 11.81 2.07 8.21 6.61 12.44 13.38 12.46 3.35 0 6.01-1.01 8.32-3.19 2.79-2.61 4.48-6.1 5.56-11.52.7-3.4.74-12.03.09-15.54-1.51-8.23-5.11-13.18-10.64-14.62-1.59-.43-4.97-.41-6.54.02zm4.77 7.78c1.93.58 3.37 2.79 4.23 6.48.45 1.91.49 2.77.49 7.99.02 6.23-.18 8.01-1.26 10.77-1.28 3.42-4.25 4.81-7.11 3.37-2.81-1.39-4.05-5.11-4.25-12.8-.18-6.21.34-10.19 1.66-12.82 1.36-2.74 3.54-3.77 6.24-2.99zM3011.06 1759.01c-4.18 1.1-7.38 4.23-8.44 8.3-.76 2.99-.18 7.49 1.3 9.97 1.44 2.43 4.07 4.63 7.92 6.7 4.07 2.18 5.78 3.49 6.79 5.2.49.85.56 1.17.49 2.72-.09 1.53-.18 1.89-.74 2.61-.92 1.24-2.29 1.78-4.16 1.66-2.18-.11-4.12-1.12-6.21-3.24l-1.64-1.64-2.61 2.81c-2.11 2.29-2.56 2.9-2.41 3.22.4.74 3.53 3.53 4.9 4.36 2.29 1.39 4.3 1.98 7.27 2.11 2.18.11 2.9.04 4.48-.36 2.47-.61 4.39-1.71 6.01-3.46 2.25-2.41 3.24-5.08 3.24-8.82 0-4.07-1.06-6.86-3.58-9.36-1.69-1.69-3.06-2.63-6.88-4.79-5.13-2.92-6.41-4.25-6.41-6.77 0-1.75.52-2.74 1.82-3.44.85-.45 1.21-.52 2.68-.45 2.09.13 3.17.65 5.02 2.45l1.37 1.33 2.54-2.52c1.39-1.39 2.54-2.63 2.54-2.77 0-.43-3.96-4.07-5.11-4.68-2.62-1.39-7.26-1.93-10.18-1.14zM2709.63 1781.26v21.93H2716.85l-.07-13.81c-.04-7.6-.04-13.81-.02-13.79 0 .02.45 1.21.97 2.63.54 1.42 2.7 6.79 4.84 11.92 2.11 5.13 4.21 10.17 4.61 11.18l.76 1.87h7.56v-43.86h-7.26l.11 13.81.09 13.81-1.51-3.96c-.83-2.2-3.28-8.39-5.44-13.77l-3.94-9.79-3.96-.07-3.96-.04v21.94zM2752.37 1781.26v21.93h23.16l-.04-3.78-.07-3.76-7.58-.07-7.6-.05v-11.92l4.9-.04 4.88-.07.07-3.67.05-3.64h-9.9v-9.22h14.62v-7.64h-22.5v21.93zM2788.18 1763.08l.07 3.78 4.57.07 4.54.04v36.22h7.88v-36.22h9v-7.64h-26.1l.04 3.75zM2825.82 1759.82c.07.29.97 5.83 2.02 12.33 1.03 6.5 2.56 15.9 3.35 20.92.81 5.02 1.53 9.34 1.6 9.63.11.49.16.52 3.44.45l3.31-.07 1.84-9.11c1.01-5.02 2.2-11.18 2.65-13.72.45-2.54.88-4.86.94-5.17.07-.34.36.9.76 3.15.52 2.99 4.36 22.54 4.81 24.45.11.52.18.52 3.55.52h3.42l.85-5.35c.47-2.92 1.46-9.09 2.2-13.65.74-4.59 1.89-11.76 2.59-15.97.67-4.21 1.28-7.92 1.35-8.28l.13-.61H2857.19l-.13.72c-.27 1.64-2.36 18.33-2.81 22.34-.25 2.34-.49 4.43-.52 4.61-.04.18-.34-1.39-.7-3.49-.52-3.15-4.12-21.91-4.52-23.69-.11-.49-.18-.49-3.35-.49h-3.26l-.22 1.17c-1.26 6.23-3.58 18.49-4.18 22-.4 2.41-.79 4.23-.85 4.05-.07-.18-.29-1.96-.49-3.94-.38-3.85-2.77-22.54-2.92-23.01-.07-.2-1.03-.27-3.82-.27h-3.71l.11.48zM2921.53 1781.24v21.95h7.88v-16.67l1.26.07 1.26.07 2.47 5.96c1.35 3.28 2.88 7 3.4 8.26l.94 2.32h8.64l-.4-.97c-1.01-2.36-7-16.96-7-17.07 0-.07.58-.47 1.3-.92 1.66-1.01 3.64-3.1 4.41-4.63 1.91-3.76 1.98-9.54.18-13.38-1.42-3.01-3.73-5.02-7.09-6.14-1.84-.61-1.87-.61-9.54-.7l-7.72-.07v21.92zm14.89-13.55c2.11.99 3.06 2.99 2.81 6.12-.13 1.96-.7 3.17-1.87 4.14-1.1.92-2.27 1.17-5.35 1.17h-2.61V1766.9l2.88.11c2.48.1 3.04.19 4.14.68zM2962.25 1781.26v21.93h7.88v-11.76l1.84-3.33c1.03-1.84 1.91-3.35 1.98-3.35.07 0 1.69 4.14 3.6 9.22l3.46 9.22h4.45c2.47 0 4.43-.09 4.36-.18-.47-.79-10.48-27.02-10.39-27.31.07-.29 3.44-6.34 9.07-16.22.05-.09-1.8-.16-4.14-.16h-4.23l-1.84 3.55c-1.03 1.93-3.31 6.28-5.06 9.63l-3.22 6.07.07-9.63.07-9.63h-7.9v21.95z"/></g></svg>