<svg xmlns="http://www.w3.org/2000/svg" viewBox="1802.9 337.3 196.9 36.8"><g fill="#F4081F"><path d="M1819.58 337.42c-3.17.31-6.21 1.44-8.93 3.34-1.19.83-3.47 3.1-4.34 4.33-.87 1.23-2.02 3.52-2.46 4.93-1.24 3.85-1.22 7.77.04 11.56a18.353 18.353 0 0 0 14.94 12.4c5.69.79 11.44-1.14 15.52-5.22 2.88-2.89 4.66-6.47 5.24-10.58.2-1.37.14-4.32-.1-5.59-.74-3.97-2.36-7.06-5.18-9.87-1.6-1.6-2.73-2.42-4.63-3.38-3.21-1.6-6.6-2.25-10.1-1.92zm-.83 13.73c1.37 4.55 2.51 8.3 2.55 8.35.03.04 1.21-3.74 2.61-8.4 1.41-4.66 2.58-8.47 2.61-8.47.04 0 1.54 4.84 3.35 10.75 1.8 5.92 3.3 10.82 3.32 10.88.04.1-.12.13-.59.13h-.65l-.15-.56c-.44-1.6-1.23-3.81-1.71-4.78-.97-1.96-2.15-2.88-3.66-2.88-.92-.01-1.4.2-2.18.91-.76.7-1.46 1.74-2.25 3.38l-.67 1.39-.64-1.34c-1.07-2.22-2.07-3.51-3.16-4.08-.74-.37-1.75-.37-2.6.02-1.59.73-2.89 3.01-3.92 6.87l-.29 1.06h-1.25l.07-.27c.03-.15 1.42-4.71 3.06-10.12 1.65-5.42 3.12-10.22 3.26-10.68.2-.66.28-.8.33-.64.05.12 1.2 3.93 2.56 8.48zM1883.4 349.39c-1.75.27-3.21.82-4.61 1.72-3.21 2.1-4.45 5.09-3.19 7.75.82 1.73 2.83 2.96 5.56 3.42 1.2.21 3.7.16 4.91-.09 5.65-1.16 9.18-5.71 7.35-9.46-.87-1.78-2.85-2.93-5.86-3.4-.88-.14-3.11-.11-4.16.06zm3.46 3.17c.74.24 1.41.7 1.71 1.17.2.32.23.5.23 1.31 0 .85-.03.99-.32 1.61-.84 1.76-2.95 2.93-5.04 2.78-1.79-.13-2.8-.93-2.92-2.31-.13-1.43.84-3.27 2.13-4.07.99-.63 3.02-.86 4.21-.49zM1919.05 349.39c-2.51.38-4.69 1.47-6.32 3.13-1.33 1.36-1.96 2.72-1.96 4.24.01 2.43 1.57 4.23 4.48 5.16 2.09.67 5.2.67 7.57 0 .4-.12 1.27-.46 1.92-.78 3.93-1.91 5.77-5.49 4.34-8.42-.88-1.77-2.89-2.94-5.84-3.39-.95-.14-3.13-.11-4.19.06zm3.33 3.14c.77.2 1.6.77 1.86 1.28.17.32.21.57.21 1.28 0 .82-.03.95-.33 1.58-.87 1.78-2.95 2.92-5.03 2.77-2.21-.16-3.29-1.44-2.87-3.4.24-1.09 1.15-2.42 2.06-2.98.97-.61 2.86-.85 4.1-.53zM1958.46 349.29c-.14.02-.58.09-.98.15-1.09.16-2.19.53-3.37 1.14-2.88 1.5-4.61 3.8-4.61 6.18 0 2.57 1.82 4.48 5.07 5.33 1.97.51 4.9.42 7.12-.22 1.79-.51 3.61-1.62 4.8-2.91 2.29-2.52 2.41-5.66.27-7.64-.74-.7-2.2-1.41-3.56-1.75-.88-.22-1.3-.26-2.76-.29-.95-.02-1.84-.02-1.98.01zm2.83 3.3c.78.25 1.4.71 1.68 1.27.2.38.23.55.2 1.34-.05 1.15-.34 1.8-1.25 2.71-1.24 1.24-3.09 1.81-4.76 1.46-1.72-.36-2.51-1.47-2.24-3.14.47-2.87 3.41-4.55 6.37-3.64zM1867.77 349.99c-.2.21-1.16 1.33-2.16 2.49-.99 1.16-1.88 2.2-1.97 2.29-.16.17-.21.05-.95-2.43l-.78-2.62h-6.2l-1.78 6.08-1.78 6.09 1.87.03c1.02.01 1.89.01 1.91-.01s.36-1.16.78-2.54c1.16-3.93 1.23-4.15 1.29-4.1.02.03.43 1.53.91 3.34l.87 3.28 1.22.03 1.22.02 2.86-3.14c1.58-1.72 2.87-3.08 2.88-3.02.02.06-.36 1.46-.85 3.11l-.87 3 2.41.03c1.33.01 2.45-.01 2.49-.05.03-.05.81-2.74 1.7-5.99.91-3.25 1.66-5.99 1.69-6.09.05-.16-.15-.17-3.18-.17h-3.24l-.34.37zM1896.04 349.68c0 .02-.22.9-.49 1.94s-.49 1.93-.49 1.97 1.15.07 2.56.07 2.56.03 2.56.07c0 .05-.44 1.89-.98 4.11s-.98 4.05-.98 4.07c0 .01 1.07.03 2.39.03h2.39l1.07-4.17 1.08-4.16 2.63-.03c2.39-.02 2.63-.04 2.68-.2.12-.41.85-3.59.83-3.61-.06-.04-15.25-.13-15.25-.09zM1933.21 349.84c-.1.27-3.4 11.91-3.4 12 0 .05.93.09 2.25.09h2.24l.33-1.21c.19-.66.42-1.48.52-1.82l.19-.62 2.26.03 2.27.03.3.33.3.32-.07 1.15c-.07 1.14-.07 1.16.18 1.45l.25.29 2.62.03 2.62.03-.21-.34c-.24-.41-.23-.91.06-1.93.2-.74.15-1.5-.13-1.87-.11-.14-.42-.38-.71-.54-.3-.17-.52-.33-.52-.39.01-.05.37-.29.83-.51 1.46-.76 2.4-1.93 2.66-3.31.27-1.46-.46-2.6-1.99-3.11-.6-.2-.77-.21-6.71-.21-4.79-.01-6.11.02-6.14.11zm9.44 2.78c.83.34.61 1.64-.36 2.12-.4.2-.58.21-3.11.21-2.51 0-2.68-.01-2.63-.18.03-.09.17-.64.32-1.23l.26-1.05h2.61c1.99-.01 2.65.02 2.91.13zM1971.77 350.09c-.05.21-.77 2.93-1.58 6.07-.82 3.13-1.49 5.71-1.49 5.74 0 .02 2.79.04 6.19.04h6.18l.43-1.65.43-1.64-3.85-.05-3.85-.05 1.11-4.33c.62-2.38 1.12-4.36 1.12-4.41 0-.04-1.04-.07-2.31-.07h-2.3l-.08.35zM1987.17 355.7c-2.22 3.28-4.08 6.03-4.12 6.1-.07.12.26.14 1.94.14h2.03l.71-1.08.72-1.08 2.99.03 3 .02.26 1.03.26 1.03 2.42.03 2.42.02-.06-.22-1.4-6.09-1.34-5.86-2.9-.02-2.89-.02-4.04 5.97zm6.14-.67c.23.95.4 1.75.4 1.8 0 .04-.73.08-1.62.08-.9 0-1.62-.02-1.62-.06 0-.08 2.38-3.6 2.41-3.56.02.02.21.79.43 1.74z"/></g></svg>