<svg xmlns="http://www.w3.org/2000/svg" viewBox="0 0 106 40"><title>logo</title><g fill="#D31624"><path d="M105.2 30.3c-.2-.2-.5-.3-.7-.4-.3-.1-.5-.2-.8-.2-.5-.1-.8-.2-1.1-.3-.2-.1-.3-.2-.3-.4s.1-.4.3-.4c.4-.2 1-.2 1.5 0 .2.1.4.3.6.5l.1.1L106 28l-.1-.1c-.3-.4-.7-.6-1.2-.8-.8-.3-1.7-.4-2.5-.1-.3.1-.6.2-.9.4-.3.2-.5.4-.6.7-.2.3-.2.6-.2 1 0 .3.1.6.2.9.1.2.3.4.5.6.2.1.4.3.7.4.2.1.5.2.8.2.5.1.9.2 1.1.4.2.1.3.3.3.5 0 .1 0 .2-.1.3-.1.1-.1.2-.2.2-.1.1-.2.1-.3.1h-.3c-.3 0-.7-.1-.9-.2s-.5-.3-.7-.6l-.1-.1-1.3 1.2.1.1c.3.4.8.7 1.3.8.5.2 1 .3 1.6.3.4 0 .7 0 1.1-.1.4-.1.7-.2.9-.4.3-.2.5-.4.7-.7.2-.3.2-.7.2-1.1 0-.3-.1-.6-.2-.9l-.7-.7zm-10.6-.6c.1-.4.2-.7.5-.9.3-.3.7-.4 1.2-.4.2 0 .5 0 .6.1.2.1.3.2.4.3.1.1.2.3.3.5 0 .1.1.3.1.4h-3.1zm4.2-1.9c-.3-.3-.7-.5-1.1-.7-.4-.2-.8-.2-1.3-.2s-1 .1-1.5.3c-.4.2-.8.4-1.2.8-.3.3-.6.7-.8 1.2-.2.5-.3 1-.3 1.5s.1 1.1.3 1.5c.2.4.4.8.8 1.1.3.3.7.5 1.2.7.4.2.9.3 1.5.3 1.3 0 2.3-.5 3-1.4l.1-.1-1.3-1-.1.1c-.2.3-.4.4-.7.6-.3.1-.6.2-1 .2-.2 0-.4 0-.6-.1l-.6-.3c-.2-.1-.3-.3-.4-.5-.1-.1-.1-.3-.1-.5h5.1v-.5c0-.6-.1-1.2-.3-1.6-.2-.7-.4-1.1-.7-1.4zm-6.7-.9h-.2c-.5 0-.9.1-1.2.4l-.6.6v-.8h-1.9V34H90v-3.7c0-.1 0-.3.1-.5s.1-.4.2-.5c.1-.2.3-.3.5-.5.2-.1.6-.2 1.1-.2.1 0 .2 0 .3.1h.2V27h-.1c-.1-.1-.2-.1-.2-.1zm-7.5 4c0 .2 0 .4-.1.6-.1.2-.1.4-.3.5-.1.2-.3.3-.4.4s-.4.1-.6.1c-.2 0-.4 0-.6-.1-.2-.1-.3-.2-.3-.4-.1-.1-.1-.3-.2-.5s0-.4 0-.6V27h-1.9v4.3c0 .4 0 .7.1 1 .1.3.2.7.5.9.2.3.5.5.8.6.3.2.7.2 1.2.2s1-.1 1.4-.4l.6-.6v1h1.8v-6.9h-1.9l-.1 3.8zm-7-5.8h-1.9V27h-1.2v1.6h1.2v3c0 .3 0 .6.1.9.1.3.2.6.4.8.2.2.4.4.7.5.3.1.7.2 1.1.2h.6c.2 0 .4-.1.6-.1h.1l-.1-1.6-.2.1c-.1 0-.2.1-.3.1-.5.1-.8 0-.9-.2-.1-.2-.2-.4-.2-.7v-3h1.7V27h-1.7v-1.9zm-4.3 2.7c-.2-.3-.5-.5-.8-.6-.3-.1-.7-.2-1.2-.2s-1 .1-1.4.4l-.6.6v-.8h-1.9V34h1.9v-3.8c0-.2 0-.4.1-.6.1-.2.1-.4.2-.5l.4-.4c.2-.1.4-.1.6-.1.2 0 .4 0 .6.1.1.1.2.2.3.4.1.2.1.3.2.5V34h1.9v-4.3c0-.4-.1-.7-.2-1s.1-.7-.1-.9zm-8.9 1.9h-3.2c.1-.4.2-.7.5-.9.3-.3.7-.4 1.2-.4.2 0 .5 0 .6.1.2.1.3.2.5.3.1.1.2.3.3.5 0 .1 0 .3.1.4zm1-1.9c-.3-.3-.7-.6-1.1-.7-.4-.1-.9-.2-1.3-.2-.5 0-1 .1-1.5.3s-.8.4-1.2.8c-.3.3-.6.7-.8 1.2-.2.5-.3 1-.3 1.5s.1 1.1.3 1.5c.2.4.5.8.8 1.1.3.3.7.5 1.2.7.5.2 1 .3 1.5.3 1.3 0 2.3-.5 3-1.4l.1-.1-1.3-1-.1.1c-.2.2-.4.4-.7.6-.3.1-.6.2-1 .2-.2 0-.4 0-.7-.1l-.6-.3c-.2-.2-.3-.3-.4-.5-.1-.1-.1-.3-.2-.5h5.1v-.5c0-.6-.1-1.2-.2-1.6-.1-.7-.3-1.1-.6-1.4zm-7.6-3.9l-2.7 7.4-2.7-7.4h-2.3l4 10.1H56l4-10.1h-2.2zm-2.9-12.3c-1.7-.5-1.9-1-1.9-1.4 0-.5.4-1.2 1.6-1.2s2 1 2 1l1.2-1.4s-1.1-1.3-3.1-1.3c-1.6 0-3.9.7-3.9 3 0 2.2 2 2.7 2.8 2.9.7.2 2.5.5 2.5 1.6s-1.3 1.3-1.8 1.3c-1.4 0-2.4-1.2-2.4-1.2l-1.3 1.2s1.2 1.7 3.7 1.7 3.9-1.5 3.9-3.2c0-1.9-1.6-2.6-3.3-3zm8.3-1.1c-.8 0-1.5.3-1.9.7v-.5h-1.9V21h1.9v-3.8c.5.4 1.1.7 1.8.7 1.9 0 3.4-1.5 3.4-3.7.1-2.2-1.4-3.7-3.3-3.7zm-.3 5.7c-1 0-1.7-.8-1.7-2s.7-2 1.7-2 1.7.8 1.7 2c.1 1.2-.7 2-1.7 2zm21.9-2.4l3-3.2h-2.5l-2.4 2.6V6.8H81v10.8h1.9v-3.2l2.5 3.2H88l-3.2-3.8zm-5.1-3.3h-.2c-.5 0-.9.1-1.2.4l-.6.6v-.8h-1.9v6.9h1.9v-3.7c0-.1 0-.3.1-.5 0-.2.1-.4.2-.6.1-.2.3-.3.5-.5.2-.1.6-.2 1.1-.2.1 0 .2 0 .3.1h.2v-1.8H80c-.2.1-.3.1-.3.1zm-6.3.9c-.2-.3-.6-.5-1-.7-.4-.2-.9-.2-1.5-.2-.5 0-1 .1-1.5.3-.5.2-1 .5-1.4.8l-.1.1 1 1.2.1-.1c.2-.2.5-.4.8-.5.3-.1.6-.2 1-.2s.7.1 1 .3c.3.2.4.4.4.8-.5 0-1 0-1.5.1-.6.1-1.1.2-1.5.3s-.8.4-1.2.7c-.3.3-.5.8-.5 1.3 0 .4.1.8.3 1.1.2.3.4.5.7.7.2.2.5.3.8.4.3.1.6.1.9.1.5 0 .9-.1 1.3-.3.3-.1.5-.3.7-.5v.6H74v-4.2c0-.3 0-.7-.1-1-.1-.5-.2-.8-.5-1.1zm-1.2 3.3c0 .5-.1.9-.4 1.2-.3.3-.7.4-1.2.4h-.4c-.1 0-.2-.1-.3-.1-.1 0-.2-.1-.2-.2-.1-.1-.1-.2-.1-.3 0-.2.1-.4.2-.5.2-.1.3-.2.6-.3.2-.1.5-.1.8-.1.3 0 .6-.1.8-.1h.2zM31.9 24.2c0-.1 0-.1-.1-.2 2.1-.1 5.7-.1 6.4-.1.8.1-3.8.2-6.3.3zm-1.3 1.9c.1 0 .2.1.3.1l1.4.5c1.5.5 3 .9 4.5 1.4-3-.8-5.9-1.6-8.8-2.4v-.1l-.1-.2 1.1.3c-.1-.1 1.6.4 1.6.4zm7.2 2.2l.2.1 1.3.4h-.4c-.3-.3-.7-.4-1.1-.5l.4.1-.4-.1c-.5-.1-1.2-.3-1.8-.5l-2-.7c1.3.4 2.5.8 3.8 1.2zm1.5.4zm.3 0c0-.1 0-.1 0 0 .1 0 .1.1.1.2s0 .2-.1.2h-.2c-.9-.2-1.8-.5-2.7-.7l-2.2-.6c-1.9-.5-3.8-1.1-5.8-1.6l-.6-.2c-.1 0-.1 0-.1-.1l.7.2 2.1.6c1 .3 1.9.5 2.9.7l2.9.8c.2.1.5.1.7.2l1.1.3.4.1.7.2v-.1l-.1-.1s.1-.1.2-.1zm-11-1.2c-.1 0-.3-.1-.4-.1l-.3-.6c.1 0 .3.1.4.1l.3.6zm1.1 6.3l-1.3-1.6-.1-.1v-.2c-.2-.5-.4-1-.5-1.5l1.9 3.4zm-2.4-8.1l.3.1s.1 0 .1.1c-.1-.1-.3-.1-.4-.2zm.1 5.2l-.6-.8-1.7-2.3c0-.1-.1-.2-.1-.3l-.2-.5v-.1-.4c.2 0 .4.1.5.2l1.6 2.3c.2.6.4 1.2.5 1.9zm-.7 2.2c0 .1 0 0 0 0-.2-.3-.3-.6-.5-.9l-.5-.9-.9-1.8v-.9c.7 1.5 1.3 3 1.9 4.5zm-2-7.3l.4.5-.3-.1-.1-.4zm-.3-8.8s.1-.1.1-.2c.4-.4.7-.8 1-1.1l.5-.5.8-.8c.3-.4.7-.7 1-1.1l.1-.2 1.2-1.2.6-.6c.6-.6 1.3-1.2 1.9-1.8l.3-.3c.3-.3.7-.6 1-.9l.7-.6.7-.5c-1 1.3-2.3 2.5-3.5 3.8l-.9.9c-.1 0-.1.1-.2.1l-.1.1-4.5 4.5-.5.5-.1.1c0-.1 0-.1-.1-.2zm0-1.9V15l.1-.1.3-.3 1.2-1.1c.1-.1.3-.2.4-.4l.2-.2 1-.9c-.5.6-1.1 1.1-1.6 1.7L24.8 15l-.4.4v-.3zm1.5 1.6c-.3.4-.7.7-1 1l2.2-2.1c-.5.4-.8.8-1.2 1.1zm-.5 4.3l-.2-.1.1-.1c.1.1.1.1.1.2zm.5-3.2c.1-.1.3-.2.4-.3.5-.4 1-.8 1.4-1.2l.4-.3c.4-.3.7-.6 1-.9.9-.8 1.9-1.7 2.8-2.5l1.4-1.3c.7-.6 1.4-1.2 2.2-1.8.2-.2.5-.4.8-.6-.4.7-1 1.2-1.6 1.7l-.3.3-1.4 1.2-.7.6c-.5.4-1 .8-1.4 1.2l-1.4 1.2c-.2.2-.5.4-.7.6L27.2 17l-2.1 1.8s-.1 0-.2-.1l.1-.1.9-.8zm9.6-5.9l.1-.1-.1-.1c.3-.2.5-.4.8-.5.3-.1.6-.2 1-.4.5-.2 1-.3 1.5-.5l.4-.1h.2c-.1.1-.3.2-.4.2-.3.2-.6.3-.9.4l-.5.2c-.2.1-.3.1-.5.2-.5.2-1.3.6-1.4.6-.3.2-.7.4-1 .5.1-.1.3-.2.4-.4h.4zm3.6-2.3h.8l.1.1c.1.1.2.2.2.3 0 .1.1.1.1.2v.2c-.1.4-.4.6-.8.8h-.2l-.1.1s-.1-.1-.1 0l.2-.1c.3-.1.5-.3.8-.5.1-.1.2-.2.2-.4s-.1-.3-.2-.4l-.1-.1c-.1 0-.1-.1-.2-.1-.3-.1-.6-.1-.7-.1-.4.2-.7.3-1.1.4-.5.1-.9.3-1.3.4.7-.3 1.6-.6 2.4-.8zm-1.5 2.3c-.7.4-1.5.8-2.2 1.1l-.3.2-1.8 1 .1-.1c.6-.4 1.3-.8 2-1.2.2-.1.4-.2.5-.3l.6-.3 1.1-.4c.1.1.1.1 0 0zm-.7 1.1c-.1.1-.2.1-.3.2l-1.9 1.5c-1.5 1.1-2.8 2.3-4.2 3.5-.7.6-1.4 1.2-2 1.7h-.1l-1.5-.5.3-.2.8-.7.5-.5.3-.3 1.4-1.1c.1-.1.2-.1.3-.2 2.1-1.2 4.2-2.3 6.4-3.4zm-3.4 9.6h.1c.1 0 .2.1.3.1h.1l-2.2-.8-3.8-1.3v-.1c1.5.7 4 1.6 5.5 2.1zm-3.9-1.5c1.1.4 3.1 1.1 4.2 1.4h-.1c-1-.3-3-1-4.1-1.4zm-1.9-.5l-1.6-.6h.1l1.5.6c0-.1 0 0 0 0zm-1.9 1.6l-.1.1h-.1l-.1-.2s.3.2.3.1zm.4.4c-.1 0-.2-.1-.3-.1 0-.1.1-.1.2-.2l.1.3zm.7-1.4l-.3.3-.8-.4-.3-.6c0-.1.1-.1.1-.2l1.5.6c0 .2-.1.2-.2.3zm.8 1.9c-.4-.1-.7-.2-1.1-.3l-.1-.2s.1 0 .1.1l1.1.4zm-.1 2.4c-.2 0-.3-.1-.5-.1L27 25l.5.1.1.4zm-.6-1.8l1.1.3-1.1-.3zm3 11.9l.3.3.6.9c.1.2.2.3.3.5h-.1c-.2-.2-.5-.5-.7-.8s-.3-.7-.4-.9zm-6.3-6.4c-.1-.1-.2-.5-.3-.9l-.1-.5c.3.5.5 1 .8 1.5 0 .1.1.1.1.2v.5l-.5-.8zm-.6-2.9c0 .1.1.1.1.1v.1c0 .1.1.2.1.2-.1-.1-.1-.3-.2-.4zM23 15.2V14.5c0 .1.1.2.2.4v.4c0 .1-.1.1-.1.1 0-.1-.1-.1-.1-.2zm-.1-1l.2.5v.1l-.2-.5v-.1zm.5 11.1c0 .1.1.2.1.2l-.2-.3.1.1zm.7 2.4v.5c-.2-.5-.5-1-.8-1.5l.1.1.7.9zm-2.4-14.2v-.2-.1l.6 1.4v.5l-.6-1.6zm.2 11.4l-.3.3-.2-.2.3-.3.2.2c.1-.1 0 0 0 0zm-3.5 2.6l.3-.2.8-.6-.2.1 1.9-1.6.3.1-3.1 2.2zm0-7.9h-.1l-.6-.2.7-.3c.1.1.1.3.2.4-.1 0-.1 0-.2.1 0-.1 0 0 0 0zm0 1.6l-.8-.2c.3 0 .5.1.8.2zm-.4 7.2l-2.9 2.2c.1-.1.1-.2.2-.3l.9-.8.4-.3 1.5-1c0 .1 0 .2-.1.2zm-1.8 1.2s-.1.1-.2.1l-.5.4.1-.1v-.1l.1-.1c.2 0 .3-.1.5-.2zm1.6-6c0 .1-.1.1-.1.2l.1-.2zm.3 0c0 .1-.1.1 0 0l-.2.2h-.2l.2-.2h.2zm-.1-1.2c0 .1-.1.2-.2.2h-.1c.1-.1.2-.2.3-.2 0-.1 0-.1 0 0zm-4 5.1c-.1.1-.1 0 0 0l.3-.4.2-.2.9-.9 1.1-1.1.2-.2.2-.2.3-.3.1-.1h.1c-.2.2-.4.5-.6.7l.7-.7h.2l-.7.7v.2s-.1 0-.1.1L14 27.5zm-.8 5.9l.2-.3.1-.1s.1 0 .1-.1l.6-.5-1 1zm-.9-.2c.2-.2.4-.4.6-.5l.5-.4-.1.1c0-.1-1 .8-1 .8zm0 0l-1.1.9c-.5.4-.9.8-1.4 1.2l.2-.2.5-.4c.2-.2.5-.4.7-.6l.7-.6c.2-.2.5-.4.8-.6-.2.1-.3.2-.4.3zm-2.8 2.1c-.1.1 0 0 0 0zm-.3.2l-1.3 1.1v-.1H8l.1-.1c.4-.3.9-.7 1.3-1l-.2.1zm-.6.4l1.3-1.1 4.3-3.7c-.1.2-.2.4-.4.5l-.1.1-.1.1c-.5.4-1 .9-1.5 1.3.1 0 .1-.1.2-.2-.3.3-.6.5-1 .8l-3 2.4c.2-.1.2-.2.3-.2zm8-12.4l.2-.1c.1 0 .2 0 .2.1l-.1.2-.3-.2zm-.3-1.4s.1 0 0 0l.2-.2.7.2-.2.2c-.2 0-.4-.1-.7-.2zm-.8-1.7c-1.6-.5-3.1-1-4.6-1.5 2.1.6 4.1 1.2 6.2 1.9H17c-.1 0-.2 0-.3-.1l-1.2-.3zm.4 2.8l-.5-.2s0-.1.1-.1l.6.2c-.1 0-.1.1-.2.1zm-.2.2c-1.4 1.1-2.7 2.2-4.1 3.3.4-.4.9-.9 1.4-1.3l.2-.2.2-.2.9-.9c.2-.2.4-.4.7-.6l.2-.2c.1 0 .3 0 .5.1zm-2-1l1.2.3-.1.1c-.4-.1-.8-.2-1.1-.4zm-1.2-1.6l3.5 1-.2.1c-1.1-.3-2.2-.7-3.3-1.1zm-.5-.2c.1 0 .1 0 .2.1l.7.2-.4-.1c-.2-.1-.4-.1-.5-.2zm-1.3-3.4l.6.3c-.4-.1-.8-.3-1.1-.5-1.1-.5-2.3-1-3.4-1.4H7l.8.2c.1 0 .2.1.4.2h.7l.9.6h.1l1.9.8 2.1 1c-1.1-.4-2.2-.8-3.2-1.2zm-3.5-4c.6.2 1.1.4 1.7.6-.1 0-.2 0-.2-.1l-.7-.2-.2-.1h-.3c-.1 0-.1-.1-.2-.1l-.1-.1h-.3c-.1 0-.2-.1-.2-.1.2-.1.4 0 .5.1zm2.4 1.7l.6.3c.6.3 1.2.6 1.8.8-1-.2-2.1-.4-3.1-.6l-.2-.1s-.1 0-.1-.1l2.2.2s-1.1-.5-2.5-1.1l.3.1c.1 0 .2.1.3.1l.7.4zm2.2.3s.1 0 .1.1l.1.1.1.1.2.2-.7-.3c.1-.2.2-.2.2-.2zm5.7 4.7l-.3-.1-.2-.1c.2 0 .4.1.5.2zm-2.7-2.6c.1 0 .3.1.4.2l2.6 1.2-.7.5-.3-.2-.9-.4-.6-.3-1.8-.9c-.1 0-.3 0-.4-.1-.4-.1-.7-.3-1-.5H12c-.3-.2-.6-.3-.9-.5-.1-.1-.2-.1-.3-.2 1.2.2 2.4.5 3.6.8.1.2.2.3.4.4zm-.7-9.4l.8 1.5.1.3c.9 2.1 1.8 4.2 2.7 6.2.1.2.1.3.2.5h-.1c-1.2-2.8-2.5-5.6-3.7-8.5zm-.4-.7c.2.2.3.4.4.7l.3.7c-.3-.5-.5-1-.7-1.4zm.8-6.1l1.3 3 .1.2c0-.1-.1-.1-.1-.2-.5-1-.9-2-1.3-3zm.1-.1l.5 1.2c0 .1 0 .1.1.2-.1-.4-.3-.9-.6-1.4.6 1 1 2 1.5 3.1l-.2.1c-.2-.4-.3-.8-.5-1.2-.1-.1-.1-.3-.2-.4-.1-.3-.2-.5-.4-.8 0-.2-.1-.4-.2-.8zm2.8 11.5l.4.9c.1.3.2.6.4.9-.5-.8-.9-1.6-1.4-2.4l-.2-.4-.2-.5c-.5-1.2-1-2.3-1.4-3.5l.8 1.6.8 1.7c.3.6.5 1.1.8 1.7zm.6-.5c.3.5.5 1.1.7 1.7-.1-.3-.3-.5-.4-.8L18 12l-.8-1.6c.3.5.6 1.1.8 1.6zm-.5-4.5zm0 0zm0 .1zm.1 0s-.1 0 0 0zm0 .1zm0 0zm0 .1zm.9 15c-.1 0 0 0 0 0l.2-.2-.2.2zm.2 0l.2-.2.2.1-.3.3-.1-.2c-.1.1-.1 0 0 0zm-1.1-15l.1.2c.6 1.5 1.3 3 1.9 4.5l.3.6V13.4l-2.3-5.6c.1 0 .1 0 0 0zm1.7-4.7v-.2c-.1-.5-.1-1-.2-1.6 0-.2 0-.4.1-.5.1-.1.2-.2.4-.2.3 0 .5.4.6.6l.2.4.1.4c.2.6.3 1.2.4 1.8.1.6.2 1.3.4 1.9l.3 1.7v.4l-.3 2.4-1.1-2.4-.1-.2v-.3l-.2-1.8-.3-2.1v.5l.4 3.6c-.1-.2-.2-.3-.2-.5v-.1-.1L19.6 5l-.3-1.9zm-2.4-1c-.1-.3-.2-.5-.4-.8l-.3-.7V.5v.1l1.1 2.3 1.5 3.2.3.7v.5c-.7-1.8-1.4-3.5-2.2-5.2zM15.8.7c0-.1-.1-.1 0-.1l.1.3.9 2.1c-.3-.7-.6-1.5-1-2.3zm5.5 10.8v-.2-.2l.1.2v.3l-.1-.1zm-.1.4c0 .1.1.2.1.2v.2c0-.1-.1-.2-.1-.2v-.2zm-1.1-4.1c.2.4.4.9.6 1.3l-.1-.2-.3-.6-.1-.1V8l-.1-.2zm-.3-.4V7l.3.6v.3c-.1 0-.3-.5-.3-.5zm.3 1.3v.4c-.1-.2-.1-.3-.2-.5 0-.1 0-.3-.1-.4.1.1.2.3.3.5zm-.1.7c.1.2.1.3.2.5v.2c0-.2-.1-.4-.2-.7zm1.1 2.4v.2c-.2-.4-.4-.9-.6-1.3v-.1-.2c.1.4.4.9.6 1.4zm-.8-2.3c0-.2 0-.3-.1-.5l1 1.9v.3c-.4-.6-.6-1.1-.9-1.7zm1.3-1.2l-.1.7c0 .3-.1.7-.1 1l.2-1.7c.1 0 0 .2 0 .3l-.2 2c0-.1-.1-.1-.1-.2v-.1-.1l.3-2.2c.1.1 0 .2 0 .3zm.2 4.3v-.3c.1.3.3.5.4.8l.1.1v.5l-.5-1.1c0 .1 0 0 0 0zm.1-1.1v-.8c.1.4.1.8.2 1.2v.4l-.1-.5v-.1s-.1-.1-.1-.2zm-11.7 9.7c-.3-.1-.5-.2-.8-.2.1 0 .1 0 .2.1l.4.1h.2zm29.9 2.6c-1.8-.3-6.4-.3-9.2-.2l-.5-.2c-1.2-.6-2.4-1.1-3.6-1.7.2-.2.4-.4.6-.5 1.8.7 4.5 1.6 6.3 2.2.1 0 .4-.2.5-.5.1-.4.1-.7-.1-.8l-5.6-2c.8-.7 1.7-1.4 2.5-2.1l2.5-2.1 1.3-1c.8-.7 1.7-1.4 2.6-2l.7-.5c.2-.1.3-.2.5-.2l.3-.1V12v-.2h-.2l-.5.2s-.1 0-.1.1l-1 .5c-.3.2-.6.3-.9.5-.3.2-.6.3-.9.5-1.2.6-2.4 1.3-3.6 1.9l.4-.3.5-.2 2.7-1.5 1.9-1c.5-.3 1.1-.6 1.7-.8.1 0 .2-.1.3-.1 0 0 .1 0 .1.1 0 0 .1.2 0 .3h-.2c-.2.1-.3.2-.5.3l-.9.6c-.1.1-.2.1-.3.2-.6.4-1.1.8-1.7 1.2l-1.1.9-.2.2-2.3 2c-.5.4-1 .9-1.5 1.3 1.2-1 2.5-2.1 3.8-3.1-1 .9-2 1.7-3 2.6.1-.1.3-.2.4-.3-.4.4-.8.8-1.2 1.1l-1 1-.2.3.3-.3 1.6-1.4 1.3-1.1c.2-.2.4-.4.7-.5h.1l1.3-1c.7-.6 1.4-1.1 2-1.6.3-.3.7-.5 1-.8.1-.1.2-.2.4-.3.4-.2.7-.5 1.1-.7.1-.1.3-.1.3-.2.1-.1.1-.3.1-.5s-.1-.3-.2-.4l.2.2c0 .1.1.2 0 .3v.1c0 .1-.1.2-.2.2l-.1.1-.3.1c-.3.1-.5.3-.8.4l-.5.3c.3-.3.7-.6 1.2-.8l.3-.2c.1-.1.2-.1.2-.3v-.4c-.1-.1-.1-.2-.2-.2l.5-.3c.1-.1.2-.1.3-.2l.1-.1c0-.1.1-.1.1-.2s.1-.2.1-.3v-.3c0-.1-.1-.2-.1-.2-.1-.1-.2-.2-.4-.3h-.3c-.9.1-1.7.4-2.4.6.2 0 .3-.1.5-.2l-1.6.8c-.3.1-.5.3-.8.5l.7-.6.6-.7c.1-.1.2-.2.3-.4.1-.1.2-.3.2-.4v-.3c0-.1-.1-.1-.1-.2 0 0-.1-.1-.2-.1s-.1-.1-.2-.1h-.1c-.2 0-.4.1-.5.2l-.2.1c-.5.4-1 .8-1.4 1.2L32 11.6l-2 1.7-.1.1-2.8 2.4-2.1 1.8 1.5-1.5.4-.4.4-.4.4-.4.4-.4 3-2.9c1.2-1.2 2.5-2.4 3.7-3.7l.5-.6.2-.2c.1-.2.2-.3.2-.5 0-.1-.1-.2-.2-.3l-.1-.1c-.1-.1-.2-.1-.3-.1h-.3c-.2.1-.3.1-.5.2 0 0-.2.1-.3.2l.2-.2c.2-.2.2-.4.1-.6-.2-.2-.5-.2-.7 0l-.1.1c-.3.3-.6.7-1 1l-.3.3-.8.9-.6.5-.6.5-.9.8-.3.3c.2-.2.5-.4.7-.6-.4.4-.9.8-1.3 1.1L27 11.8c-.9.8-1.8 1.5-2.6 2.3v-1.8c0-.1-.2-.1-.4-.1h-.1l.1-2.6c0-.2-.2-.4-.5-.4h-.1-.1-.1-.2V14.1l-.2-.3-.1-.1v-1.4l-.1-1.4c-.1-1.3-.2-2.6-.2-4v-.2-.2l.6-4.1c0-.5-.3-1-.6-1-.4 0-.7.4-.7.9 0 .1.1 2 .2 2.9V5.8c-.1-.7-.2-1.4-.4-2.2L21 1.7c-.1-.4-.2-.7-.4-1-.2-.3-.5-.6-.8-.7-.3-.1-.6 0-.8.2-.2.2-.4.5-.5.8-.1.4 0 .7 0 1.1.1.8.2 1.7.3 2.6.1.5.1 1 .2 1.4l-.4-.7C18 3.7 17.2 2 16.4.3c.3.7.7 1.5 1 2.3-.4-.7-.7-1.5-1.1-2.2l-.7.3c1 2.2 1.9 4.4 2.9 6.6l.9 2.1v.1l-2.2-4.8c.5 1.2 1.1 2.4 1.6 3.6v.1L16.7 4s-.1 0-.1.1C16.1 3 15.3 1 15.2.9c-.2-.5-.7-.7-1-.6-.4.1-.5.6-.4 1 0 .3.2.5.3.8l.3.8.1.2c0 .1 0 .2.1.2-.2-.3-.5-.4-.7-.3-.2.1-.3.5-.2 1-.2-.2-.4-.4-.6-.3-.3.1-.3.6-.1 1l.6 1.5-.4-.8-.1-.1c-.1-.1-.2-.1-.4-.1-.1.1-.2.2-.2.3v.2l.1.2.9 2.1 1.8 4.2c.4.9.8 1.7 1.2 2.6 0 0 .1.1.1.2l-1.4-3c.6 1.3 1.1 2.6 1.7 3.8v.1l-.2-.1-.2-.1-1.8-.9c-.4-.2-5.6-2.4-5.8-2.5h-.1c-.6-.3-.8.4-.7.5l-.6-.2-.7-.2c-.1 0-.2.1-.3.3-.1.1-.1.2 0 .3-.2-.1-.5-.1-.8-.2l-.4-.1c-.1 0-.3-.1-.4-.1-.2 0-.3-.1-.5-.1s-.4.1-.5.2c-.1.1-.1.4-.1.5.1.2.2.3.2.5l.1.1.1.1c0 .1.1.1.1.1 0 .1.1.1.2.1l.2.1.2.1.3.1.3.1c.1.1.2.1.3.1h.1c-.1 0-.2 0-.3-.1l-.2.7s4.9 2.1 7.4 3.1c-1.4-.5-2.9-.9-4.4-1.4l-1.5-.5c-1-.3-2-.6-3.1-.7-.4.3-.7.3-1 .3-.1 0-.3 0-.4-.1H1.8c-.1 0-.1 0-.2-.1l-.9-.3-.2-.1H.4c-.2 0-.4.2-.4.4 0 .3.1.5.3.6h.1l1.3.2c.1 0 .2 0 .3.1l.9.3c-.1.1-.1.3-.1.4l-.1.3v.1l1 .3c2.3.7 4.7 1.4 7 2.1l-.2.6-2.3-.8-1.1-.4c-.7-.2-1.5-.5-2.2-.8 0 0-.1 0 0 0H5l1.9.7.9.4s.1 0 .1.1l-.9-.2-1.7-.5-.8-.3-1-.3-.8-.3-1.5-.5h-.1c-.2 0-.3.1-.4.3-.1.2 0 .4.1.5H1c1.2.3 2.4.7 3.6 1H5l1.8.6-.9-.2 1.1.3c.2.1.4.1.6.2l.5.2 2.2.7 2.2.8 2.2.7c-1.8 1.6-3.6 3.2-5.2 5-.3.3-.6.7-.9 1l-.1.1-.2.2s-.4.3-.5.4c-.1.1 0 .3.2.5.2.1.4.2.5.1.1-.2.2-.4.4-.6l.1-.1.1-.1.3-.2 7-5.6.1-.1h.1l.2.1-1.6 1.8-.5.5-.8.9c-.1.1-.3.3-.4.5l.1-.1c-1 1-3 3.1-3 3.1l.1.1c-.5.4-.9.9-1.4 1.3l.1.2-.6.5-.1.1c-.1.1 0 .3.2.6.2.2.4.3.5.3-.3.3-.7.7-1.1 1l-.1.2c-.1.1-.2.5-.1.7 0 0 .1.1.1.2l-.8.7-.1.1c-.1.1-.1.2.1.4.1.2.3.3.4.2 0 .1 0 .2.1.3.1.1.2.2.3.2L11 35c.3-.2.6-.5.9-.7-.3.4-.6.8-.8 1.2l-.1.1-.4.4-.8.7-.6.6-.1.1c-.2.2-.2.6 0 .8h.4v-.1l.1-.1v-.1-.1l.1-.1v-.1h.1v-.1l.1-.1.1-.1v-.1l.1-.1.1-.1v-.1l.1-.1v-.2h.1v-.1-.1-.1-.1c.1-.1.2-.3.3-.4.1-.1.2-.2.4-.3l1.1-1 1.1-1.1.4-.3.7-.7.4-.4.7-.7 1.1-1 .2-.2.5-.5.4-.4.2-.2c.4-.3.8-.6 1.2-1l1.4-1.1c-3.2 3.3-6.5 6.6-9.6 10h-.1l2.7-2.7 1.7-1.7c.4-.3.7-.7 1-1 .5-.4.9-.9 1.3-1.3l2.7-2.7 1.3-1.3.1-.1c0 .1.1.1.1.2v.2l.1.5c.2 1.5.4 3.5.4 3.7l.2 1.7c.2 1.3 1.1 6.5 1.3 6.8.1.2.2.3.5.4s.4-.2.5-.4c0-.2-.1-.5-.1-.8v-2.5l-.1-1.1c-.1-.7-.2-1.4-.3-2.2 0-.2-.1-1.3-.1-1.5 1.1 2.2 3.4 6.7 3.4 6.7 0 .1.2.1.5 0 .2-.1.4-.2.3-.3-.9-2.3-1.8-4.5-2.8-6.8l1.8 2.4s.1.1.1.2.1.1.1.2c.4.9.8 1.7 1.1 2.6-.5-.8-.9-1.7-1.3-2.7.2.6.5 1.3.8 1.9.3.6.6 1.2.9 1.7.2.3.3.5.5.8.1.2.3.3.5.5.2.1.5.3.8.2.2 0 .3-.1.4-.3.1-.1.2-.3.2-.5s0-.4-.1-.5l.5-.2h.1l-1.1-2.3-1.1-2.3-1.1-2.3c-.4-.8-.8-1.5-1.1-2.3l.4.1c1.6 3.4 3.2 6.7 4.9 10-1.5-3.3-3.1-6.6-4.6-9.9l5.2 1.7-2.7-1-2.7-.9-.3-.6 2.4.7.3.1c1.2.4 2.3.7 3.5 1l.7.2 1.3.5c.5.2.9.3 1.3.5.3.1.7.2 1 .4l.2.1h.1c.2 0 .5-.4.7-1 .2-.6.2-1.2-.1-1.3h-.2c.1-.3 0-.5-.1-.5l-5.6-1.8-.8-.2-3.1-1h.4l2.1.7 2.2.7 2.1.7h.1c.1 0 .1-.1.2-.2v-.3l.2-.5-2.1-.7-1.4-.5-.5-.2c4.5-.1 9.4-.5 7.5-.8zM.8 18.6c.7.2 1.4.4 2 .6h.1l-2.1-.6z"/></g></svg>