<svg xmlns="http://www.w3.org/2000/svg" viewBox="7.6 142.5 490.1 119.2"><g fill="#173EE2"><path d="M337.95 142.66c-3.25.58-5.81 1.75-7.2 3.29-1.61 1.79-2.59 4.86-2.23 7.05.73 4.35 3.65 6.5 12.2 8.84 4.2 1.17 5.88 2.34 5.88 4.02 0 2.19-1.72 3.47-4.67 3.47-2.34 0-4.02-1.1-5.15-3.43l-.88-1.79-2.96.26c-1.64.11-3.58.22-4.38.22h-1.42l.26 1.5c.51 3.29 3.32 6.98 6.17 8.18 2.08.88 9.13 1.39 12.13.91 6.28-.99 10.15-4.93 10.12-10.34 0-5.66-2.78-8.14-11.98-10.66-2.56-.69-5-1.5-5.48-1.79-3.25-2.15 1.35-5.48 4.97-3.62.73.37 1.57 1.24 2.01 2.05l.73 1.42 3.83-.26c5.37-.33 5.19-.22 4.57-2.23-1.39-4.6-4.97-6.83-11.69-7.23-1.62-.12-3.77-.04-4.83.14zM7.85 145.84c1.1 12.27 5.7 22.57 13.81 31.04 6.14 6.39 13.11 10.59 21.99 13.26 2.05.62 3.29 1.21 3.29 1.5 0 .44-3.32.51-19.61.62l-19.65.07v19.36l19.61.07c17.17.11 19.65.18 19.76.66.07.4-.55.73-2.23 1.17-16.22 4.24-29.66 17.06-34.73 33.13-.99 3.14-2.67 13.44-2.23 13.84.15.15 4.57.29 9.82.37l9.61.11.22-2.48c.69-7.2 4.05-13.88 9.64-19.1 2.7-2.52 7.93-5.84 9.2-5.84h.77v27.4h19.72v-13.88c0-9.31.11-13.88.37-13.88.22 0 1.24.44 2.3.95 7.01 3.54 12.34 9.09 15.16 15.96 1.17 2.81 2.26 7.41 2.26 9.57v1.28h19.47l-.22-3.4c-.55-8.22-3.51-16.76-8.25-23.78-6.5-9.53-15.63-16.25-26.99-19.8-2.59-.8-4.09-1.46-3.98-1.72.11-.33 5.11-.47 19.72-.55l19.61-.07v-19.36l-19.61-.07c-14.28-.07-19.61-.22-19.72-.51-.07-.26 1.53-.95 4.09-1.75 8.44-2.67 15.45-7.05 21.62-13.48 8.11-8.51 12.53-18.41 13.44-30.31l.26-3.18h-19.4l-.22 2.08c-.55 5.22-2.01 9.5-4.6 13.44-2.19 3.4-4.49 5.92-7.41 8.11-2.15 1.61-6.76 4.13-7.52 4.13-.26 0-.37-4.64-.37-13.88v-13.88H47.13v13.86c0 10.08-.11 13.88-.4 13.88-.26 0-2.01-.88-3.91-1.94-5.3-2.89-9.72-7.56-12.67-13.37-1.24-2.48-2.74-8.33-2.74-10.66v-1.79H7.6l.25 2.82zM132.94 150.04c.04 8.62.47 15.3 1.21 17.38 1.28 3.62 3.94 6.06 7.93 7.27 2.78.84 10.34.8 13.29-.04 2.59-.77 5.66-3.47 7.09-6.25.84-1.68.95-2.37 1.21-8.4.15-3.62.29-8.91.29-11.8l.04-5.19h-9.86v10.48c0 11.54-.11 12.16-2.26 13.73-2.3 1.68-6.39 1.02-8.11-1.31-.73-.99-.77-1.57-.88-11.98l-.11-10.92h-9.82v7.03zM170.56 147.66c0 2.59.11 9.72.26 15.89l.22 11.25h8.66l.04-1.21c.04-.62.18-4.53.29-8.66l.22-7.49 6.03 8.91 6.03 8.88 4.38-.22c2.37-.15 4.38-.29 4.42-.33s.15-7.2.26-15.89l.22-15.78h-9.46l-.07 8.84-.11 8.88-5.99-8.88-6.03-8.84h-9.34v4.65zM208.55 159.09v16.07h9.86v-32.14h-9.86v16.07zM223.34 143.46c-.11.26 2.45 7.38 5.62 15.78 4.93 13.04 5.95 15.38 6.68 15.67.44.18 2.89.22 5.41.07l4.57-.26 5.88-15.85 5.88-15.85h-4.24c-5.15 0-5.73.15-6.06 1.39-.62 2.67-6.54 21.26-6.76 21.26-.11 0-1.35-3.51-2.7-7.78-1.35-4.24-2.99-9.35-3.62-11.32l-1.13-3.54h-4.67c-3.44-.01-4.75.1-4.86.43zM260.96 158.8c.15 8.69.29 15.85.29 15.89.04 0 6.1.15 13.51.29l13.4.29v-7.42h-17.53v-6.58h15.7v-6.2l-7.74-.07-7.78-.11v-5.12l8.33-.11 8.29-.07v-6.58h-26.77l.3 15.79zM293.64 159.02v16.14h9.86v-13.14h1.35c1.9 0 3.4 1.75 6.68 7.96l2.74 5.19h5.04c4.13 0 5.08-.11 5.22-.55.26-.66-4.6-9.79-5.99-11.25-.55-.58-1.53-1.39-2.23-1.79l-1.21-.77 2.12-.99c3.58-1.61 5.26-4.16 5.26-8.04 0-2.41-.62-4.24-1.94-5.73-2.19-2.48-2.78-2.59-15.52-2.89l-11.4-.26v16.12zm17.86-8.8c.77.58.95 1.02.95 2.3 0 2.3-1.02 2.96-5.26 3.25l-3.32.22v-6.86l3.32.18c2.53.14 3.55.36 4.31.91zM361.58 159.09v16.07h9.86v-32.14h-9.86v16.07zM379.11 159.06v16.11h5.95c6.94-.04 12.53-.51 14.94-1.31 3.8-1.24 6.72-4.57 7.82-8.91.8-3.21.55-10.23-.51-13.22-1.46-4.13-3.94-6.65-7.63-7.85-1.35-.44-3.94-.62-11.14-.77l-9.42-.15v16.1zm15.59-8.33c2.96 1.1 3.94 3.73 3.69 9.68-.26 5.77-1.35 7.01-6.57 7.34l-2.85.22v-17.64h2.34c1.31 0 2.81.18 3.39.4zM423.74 143.28c-1.06.22-.8-.37-7.38 17.2-3.87 10.3-5.15 14.06-4.82 14.39.29.29 1.64.29 4.86.07l4.46-.33.77-2.37.77-2.37h11.62l.77 2.63.77 2.67h4.38c2.41 0 4.6-.15 4.89-.33.44-.29-.47-3.1-5.3-16l-5.81-15.63-4.57-.04c-2.52-.04-4.94 0-5.41.11zm6.28 14.28l1.61 5.19h-3.43c-1.9 0-3.43-.07-3.43-.18 0-.26 2.85-9.64 3.14-10.41.29-.66.14-.95 2.11 5.4zM449.23 159.02v16.14h3.4c7.09-.04 16.11-.69 17.9-1.31 2.45-.84 5.41-3.65 6.57-6.25 1.28-2.85 1.86-7.63 1.39-11.36-.73-5.92-3.07-9.79-7.05-11.72l-2.3-1.13-9.93-.22-9.97-.26v16.11zm16.47-7.92c2.3 1.17 3.03 3.14 3.03 8.22 0 3.32-.15 4.27-.73 5.44-1.21 2.34-2.19 2.85-5.7 2.89l-3.03.04-.11-8.69-.07-8.66h2.56c1.9-.01 3 .21 4.05.76zM207.93 186.3c-5.7 1.53-8.84 5.04-10.12 11.25-.99 4.71-.55 9.09 1.21 12.86 2.26 4.82 5.84 7.27 11.58 7.96 3.8.47 8.18-.04 10.63-1.24 2.15-1.06 4.82-3.76 5.81-5.99 1.42-3.18 1.46-3.18-1.97-4.27-5.26-1.68-4.89-1.72-6.14.69-1.42 2.78-2.89 3.76-5.62 3.76-2.45 0-4.09-.91-5.26-2.92-.62-1.06-.8-2.05-.91-5.55-.11-3.94-.04-4.42.8-6.28 2.3-5 8.62-5.04 11.4-.07.4.69.51.66 4.2-.15 2.12-.47 3.94-.95 4.13-1.1.37-.29-1.28-3.51-2.67-5.22-1.46-1.75-3.91-3.18-6.54-3.76-2.65-.66-8.09-.62-10.53.03zM280.86 186.27c-7.82 2.26-11.5 8.51-10.74 18.22.18 2.56.47 3.73 1.42 5.66 1.35 2.89 3.87 5.55 6.54 6.94 1.83.95 2.01.99 8.25.99 6.32 0 6.43 0 8.36-1.02 5.55-2.92 8.22-7.85 8.22-15.23 0-7.45-3.4-12.82-9.53-15.05-2.66-.95-9.96-1.28-12.52-.51zm8.91 7.63c2.34 1.31 3.25 3.47 3.25 7.85 0 5.33-1.06 7.89-3.76 8.98-1.94.77-3.83.73-5.7-.11-2.67-1.21-3.8-3.69-3.8-8.47 0-4.67 1.35-7.63 4.02-8.69 1.65-.66 4.46-.44 5.99.44zM348.5 186.34c-2.3.62-2.99.95-5.26 2.59-5.22 3.8-7.16 13.04-4.27 20.71.99 2.7 3.83 5.77 6.68 7.27l2.23 1.17h12.42l2.45-1.21c4.67-2.3 6.98-5.99 7.67-12.38 1.06-9.72-3.21-16.62-11.32-18.33-2.64-.55-8.22-.48-10.6.18zm8.44 7.23c2.59 1.1 3.91 3.8 3.91 8.11 0 5.3-1.02 7.67-3.8 8.95-2.92 1.31-6.5.47-8.14-1.94-1.21-1.83-1.79-5.84-1.31-9.06.69-4.46 2.74-6.54 6.43-6.57.94 0 2.25.22 2.91.51zM386.41 186.23c-2.89.84-5.15 2.19-7.09 4.31-2.23 2.41-3.36 5.04-3.87 9.09-1.24 10.08 3.83 17.38 12.97 18.66 6.1.84 12.24-.4 17.35-3.51l2.19-1.31v-13.48h-15.34v6.2h6.58v3.71l-1.72.77c-2.08.91-6.1 1.28-7.89.69-3.32-1.1-4.89-4.78-4.57-10.7.22-3.73 1.28-5.92 3.43-7.27 2.74-1.68 7.23-1.02 8.73 1.28.77 1.17 1.79 1.21 6.43.37 2.74-.51 3.25-.69 3.25-1.31 0-2.08-3.1-5.62-6.17-6.98-1.39-.62-2.59-.77-7.16-.88-3.72-.08-5.98.03-7.12.36zM441.16 186.27c-6.98 1.94-10.56 7.34-10.56 15.89 0 5.59 1.64 9.75 5.04 12.86 2.74 2.48 5.73 3.4 11.21 3.4 7.01 0 10.52-1.79 13.11-6.76.88-1.64 1.35-2.99 1.21-3.32-.18-.55-6.5-2.85-7.74-2.85-.22 0-.62.62-.88 1.35-1.21 3.4-3.25 4.71-6.87 4.42-1.68-.15-2.19-.37-3.21-1.42-2.92-2.92-3.18-11.32-.47-14.76.95-1.21 3.32-2.37 4.86-2.37 1.83 0 4.02 1.24 4.93 2.78.47.8.91 1.5.95 1.53.04.07 1.9-.26 4.13-.69 2.74-.58 4.05-.99 4.05-1.31 0-.62-1.31-3.25-2.3-4.57-1.13-1.5-4.16-3.43-6.43-4.09-2.41-.71-8.58-.75-11.03-.09zM130.75 189.96v3.83h10.22v24.48h9.86v-24.48h10.22v-7.66h-30.32v3.83zM165.81 202.19v16.07h27.02v-7.3h-17.57l.11-3.21.11-3.18 7.78-.11 7.74-.07v-6.2l-7.74-.07-7.78-.11v-5.12l8.33-.11 8.29-.07v-6.58h-26.3v16.06zM233.38 202.19v16.07h9.14v-8.77c0-4.82.11-8.77.29-8.77.29.04.58.44 7.12 10.04 2.59 3.8 4.75 6.98 4.75 7.01.04.04 2.15.15 4.75.29l4.64.29V186.1h-9.14v8.84l-.04 8.88-.84-1.02c-.47-.58-3.21-4.57-6.1-8.84l-5.26-7.82-4.64-.04h-4.67v16.09zM308.62 202.19v16.07h25.2v-7.66h-15.34v-24.48h-9.86v16.07zM414.54 202.19v16.07h9.5v-32.14h-9.5v16.07zM474.87 188.02c-.4 1.06-3.07 8.14-5.92 15.74-3.65 9.72-5.08 13.95-4.82 14.21s1.79.29 4.86.07l4.49-.33.73-2.37.77-2.37h11.62l.77 2.63.77 2.67h4.2c2.3 0 4.57-.11 4.97-.22.88-.22 1.21.77-7.56-22.68l-3.43-9.24h-10.74l-.71 1.89zm7.71 12.38l1.57 5.26-3.25.11c-1.79.04-3.32.04-3.4-.04-.07-.07 0-.62.18-1.21.22-.58.95-2.99 1.68-5.37s1.42-4.27 1.5-4.16c.08.08.88 2.53 1.72 5.41zM215.74 229.25c-3.51.84-7.45 3.8-8.98 6.87-2.52 4.86-2.48 13.11 0 18.01 1.13 2.23 3.83 4.89 5.95 5.95 2.7 1.31 7.67 1.9 11.61 1.35 3.58-.51 5.59-1.42 7.63-3.47 1.5-1.5 3.62-5.3 3.62-6.5 0-.44-1.1-.91-4.02-1.79-2.23-.66-4.05-1.13-4.13-1.06-.04.07-.55 1.1-1.1 2.26-1.24 2.63-2.59 3.54-5.3 3.54-2.7 0-4.27-.84-5.48-2.89-.91-1.53-.99-1.97-.99-5.7 0-6.06 1.31-8.62 4.89-9.72 2.19-.66 3.98-.15 5.73 1.61.8.84 1.57 1.75 1.68 2.05.15.47.77.4 4.09-.33 2.15-.47 4.02-1.06 4.13-1.31.26-.73-1.64-3.98-3.32-5.62-1.75-1.75-3.76-2.78-6.39-3.29-2.31-.43-7.68-.43-9.62.04zM268.55 229.4c-5.77 1.57-9.02 4.86-10.52 10.66-.69 2.59-.69 7.71-.04 10.15 2.23 8.44 8.14 12.05 18.41 11.29 9.53-.69 14.61-7.45 13.81-18.48-.11-1.79-.55-4.05-.99-5.19-1.46-3.98-5.95-7.63-10.48-8.58-2.63-.54-7.89-.47-10.19.15zm8.04 7.27c1.53.62 3.03 2.41 3.54 4.16.47 1.75.47 7.16 0 8.91-1.75 6.21-10.66 6.21-12.42 0-.58-2.12-.47-7.89.18-9.5 1.5-3.5 5.23-5.03 8.7-3.57zM132.94 245.29v16.07h9.5v-8.62c0-7.12.07-8.58.47-8.22.29.22 3.03 4.09 6.1 8.62l5.66 8.22h8.95v-32.14h-9.14v8.8c0 4.82-.11 8.69-.26 8.62-.18-.11-2.92-4.05-6.14-8.8l-5.84-8.62H132.93v16.07zM179.58 229.47c-.37.58-11.58 30.72-11.58 31.08 0 .62 1.1.8 5.26.8h4.13l.8-2.74.8-2.74h11.5l.88 2.74.88 2.74h4.86c3.43 0 4.86-.11 4.86-.44 0-.29-11.18-30.72-11.47-31.23-.18-.24-10.77-.46-10.92-.21zm6.83 13.37c.77 2.63 1.5 5.11 1.61 5.44.15.58-.18.66-3.18.66-1.83 0-3.32-.11-3.32-.29 0-.55 3.1-10.66 3.29-10.66.11-.01.84 2.19 1.6 4.85zM241.42 245.29v16.07h9.86v-32.14h-9.86v16.07zM296.2 245.25v16.11h9.14v-8.88l.04-8.84.84 1.02c.47.58 3.21 4.57 6.1 8.84l5.26 7.82 4.67.04h4.64v-32.14h-9.14v8.77c0 4.82-.11 8.77-.26 8.77-.33-.04-.62-.44-7.16-10.04-2.59-3.83-4.75-6.98-4.75-7.01-.04-.04-2.15-.15-4.71-.29l-4.67-.29v16.12zM341.93 231.12c-9.93 26.41-11.07 29.62-10.74 29.95.26.26 1.83.29 4.86.07l4.49-.33.73-2.37.77-2.37h11.62l.77 2.67.77 2.63h4.2c2.3 0 4.53-.11 4.97-.22.88-.22 1.35 1.21-7.41-22.32l-3.58-9.61h-10.74l-.71 1.9zm7.7 12.38l1.57 5.26-3.25.11c-1.79.04-3.32.04-3.4-.04s.11-.84.37-1.75c.29-.88 1.06-3.32 1.68-5.37.62-2.08 1.21-3.73 1.31-3.65.08.11.88 2.55 1.72 5.44zM368.88 245.29v16.07h25.2v-7.66h-15.34v-24.48h-9.86v16.07z"/></g></svg>